<svg version="1.2" baseProfile="tiny-ps" xmlns="http://www.w3.org/2000/svg" viewBox="0 0 358 321" width="358" height="321">
	<title>svgg</title>
	<style>
		tspan { white-space:pre }
		.s0 { fill: #cb2c42 } 
	</style>
	<g id="svgg">
		<path id="path0" fill-rule="evenodd" class="s0" d="m321.87 65.04c1.46 1.87 3.19 4 3.83 4.75c7.51 8.71 18.25 28.49 23.14 42.61c7.32 21.15 10.13 47.94 7.01 66.92c-7.63 46.48-31.04 82.8-70.3 109.08c-102.54 68.66-249.44 21.22-280.08-90.44c-7-25.49-6.27-56.52 1.9-81.44c21.67-66.1 82.58-110.09 160.5-115.92c56.61-4.24 121.36 22.85 153.99 64.43zm-179.52-27.44c-4.56 4.85-8.03 12.74-9.98 22.67c-0.89 4.53-1.57 4.63-4.99 0.74c-1.34-1.53-4.07-4.5-6.06-6.61c-1.99-2.11-5.47-5.83-7.74-8.27c-4.95-5.34-4.68-5.32-8.62-0.86c-5.74 6.51-6 5.11 2.59 14.17c3.28 3.46 6.89 7.34 8.02 8.62c6.82 7.74 15.8 16.95 16.71 17.14c1.55 0.33 9.89-1.15 10.73-1.91c0.65-0.59 0.7-1.05 0.48-5.06c-0.52-9.92 3.06-25.41 7.23-31.24c0.44-0.62 1.28-1.79 1.86-2.59c1.31-1.81 1.17-2.18-1.7-4.48c-1.27-1.02-2.99-2.4-3.83-3.08c-2.04-1.65-2.52-1.58-4.71 0.76zm103.67 3.75c-0.52 0.21-3 0.9-5.51 1.54c-7.51 1.9-6.63 0.46-9.11 14.96c-0.93 5.44-1.96 11.34-2.29 13.12c-0.33 1.78-0.85 4.77-1.17 6.65c-0.31 1.88-0.83 4.74-1.15 6.35c-1.01 5.1-0.45 5.3 8.56 3.02c6.68-1.69 6.59-1.6 7.45-7.61c1.14-7.92 1.08-7.93 7.99 1.81c4.3 6.06 7.56 10.64 10.8 15.15c0.69 0.96 1.46 1.62 1.9 1.62c0.41 0 1.58-0.73 2.59-1.62c1.01-0.89 2.9-2.43 4.2-3.42c3.04-2.34 3.08-3.01 0.36-6.88c-1.1-1.56-3.18-4.52-4.63-6.58c-1.45-2.06-3.71-5.22-5.04-7.02c-3.62-4.93-3.6-4.99 3.49-8.69c12.82-6.7 12.35-6.09 9.47-12.4c-3.15-6.9-3.16-6.91-8.14-3.93c-18.88 11.3-19.85 11.58-18.69 5.3c0.22-1.16 0.76-4.04 1.2-6.4c0.64-3.37 0.71-4.42 0.35-4.85c-0.52-0.63-1.28-0.67-2.64-0.12zm-77.44 20.94c1.37 1.79 1.29 2.72-0.33 4c-4.31 3.41-6.16 9.8-4.31 14.83c2.82 7.66 14.39 10.7 21.99 5.79c2.84-1.84 3.55-1.86 5.69-0.15c1.65 1.31 1.75 1.34 4.71 1.23c4.5-0.16 4.6-0.63 0.93-4.4c-3.58-3.68-3.67-4-2.21-8c2.84-7.74 2.42-12.24-1.14-12.24c-2.73 0-3.24 0.66-3.58 4.6c-0.48 5.68-1.45 6.08-5.44 2.26c-3.38-3.23-3.38-3.33-0.15-6.44c6.15-5.92 4.53-14.69-3.13-16.97c-10.56-3.14-19.31 7.25-13.04 15.48zm13.41-7.12c0.94 3.77-4.33 7.86-6.75 5.24c-2.87-3.11-3.01-5.69-0.41-7.11c2.45-1.33 6.62-0.24 7.15 1.87zm33.13 8.52c-3.02 0.34-2.84-0.02-4.08 8.22c-0.44 2.93-1.04 6.61-1.33 8.18c-0.29 1.57-0.97 6.1-1.51 10.08c-0.54 3.97-1.24 8.7-1.54 10.51c-1.38 8.19-1.36 8.22 7.27 6.94c3.54-0.52 7.46-1.1 8.71-1.27c1.25-0.18 4.25-0.6 6.65-0.94c2.4-0.34 5.44-0.8 6.75-1.03c3.71-0.65 4.05-0.39 8.52 6.28c6.61 9.88 6.37 9.7 9.99 7.68c2.67-1.49 3.81-1.69 4.18-0.72c0.24 0.63 0.14 1.27-1.29 8.22c-0.94 4.54-0.95 5.32-0.1 6.05c0.58 0.5 11.16 4.27 26.64 9.48c6.94 2.34 6.72 1.36 3.28 14.09c-2.89 10.7-2.93 10 0.84 13.86c1.61 1.64 4.09 4.57 5.52 6.51c3.23 4.38 3.5 4.42 6.71 1.08c3.27-3.41 3.19-3.73-2.36-9.67c-4.22-4.52-4.15-4.01-1.95-13.35c2.61-11.08 2.76-12.05 1.99-12.83c-0.63-0.63-10.4-4.21-23.28-8.55c-6.98-2.35-8.66-3.31-8.35-4.77c1.24-5.74 4.05-20.53 4.23-22.22c0.33-3.12-0.31-3.02-7.45 1.26c-7.47 4.47-6.01 5.4-17.01-10.83c-2.84-4.19-3.53-4.77-4.46-3.74c-0.34 0.38-0.62 0.85-0.62 1.06c0 1.76-20.27 6.14-22.81 4.94c-1.44-0.68-1.15-4.4 1.92-24.46c1.28-8.33 1.29-8.49 0.64-9.34c-0.58-0.77-2.78-1.04-5.72-0.71zm-144.96 5.25c-0.3 2.26-0.8 6.08-1.11 8.49c-0.31 2.4-1.01 7.88-1.54 12.17c-0.53 4.29-1.04 8.27-1.14 8.84c-0.44 2.63 0.19 3.07 5.89 4.11c6.12 1.12 6.56 0.93 6.96-2.94c0.44-4.25 1.48-4.68 3.57-1.49c2.24 3.42 2.63 3.37 8.29-1.14c10.37-8.26 9.82-8.05 15.64-5.86c6.22 2.34 6.01 2.44 7.71-3.7c1.28-4.62 1.45-6.26 0.71-6.85c-0.68-0.54-9.46-4.14-18.35-7.52c-4.18-1.59-9.49-3.67-11.79-4.61c-2.3-0.94-5.96-2.38-8.13-3.2c-5.95-2.24-5.94-2.25-6.71 3.72zm109.53 5.16c5.63 5.59 5.86 7.05 1.28 8.28c-9.09 2.45-15.14-5.55-8.56-11.33c2.12-1.86 2.5-1.7 7.28 3.04zm101.52 20.82c-0.98 3.66-2.69 9.9-3.81 13.88c-3 10.64-3.21 11.57-2.85 12.54c0.33 0.87 3.58 2.33 13.12 5.91c2.09 0.78 5.38 2.05 7.31 2.8c5.19 2.03 5 2.15 6.6-3.94c1.78-6.74 1.99-6.34-4.95-9.13c-6.89-2.77-8.01-3.91-6.27-6.39c0.84-1.2 1.88-1.08 7.47 0.86c7.13 2.48 6.9 2.55 8.67-2.69c1.97-5.83 2.16-5.57-6.28-8.69c-6.88-2.54-7.98-3.75-5.88-6.42c1.25-1.59 1.89-1.55 8.07 0.48c8 2.62 7.49 2.82 9.21-3.55c1.59-5.89 2.19-5.3-9.69-9.47c-4.5-1.58-9.28-3.31-10.62-3.85c-5.24-2.09-4.47-3.43-10.1 17.65zm-191.83-9.11c0 2.29-8.21 7.63-8.92 5.79c-0.4-1.05 0.2-7.43 0.79-8.37c1.1-1.75 8.12 0.47 8.12 2.58zm-46.63 1.3c-0.88 0.62-1.42 2.82-2.03 8.38c-0.21 1.88-0.72 6.33-1.14 9.89c-0.42 3.55-0.76 6.66-0.77 6.91c-0.03 2.75-2.19 1.64-6.1-3.11c-4.58-5.57-4.23-5.66-7.74 1.98c-3.81 8.28-4.5 6.2 6.05 18.37c4.39 5.07 9.66 11.21 11.71 13.64c5.77 6.83 5.48 6.89 8.96-1.78c2.96-7.38 3-6.87-0.9-11.37c-5.15-5.93-5.97-5.54 16.16-7.74c9.25-0.92 9.12-0.81 9.12-7.79c0-7.68 0.01-7.67-7.23-7.03c-19.36 1.72-17.92 2.25-16.75-6.07c2.01-14.36 2.29-13.54-4.92-14.48c-3.34-0.44-3.52-0.43-4.43 0.21zm78.57 9.71c-3.08 9.74-2.57 9.37-9.51 6.65c-6.32-2.48-4.76-3.01-16.76 5.7c-15.03 10.9-13.84 9.43-13.54 16.84c0.27 6.72 0.21 6.82-5.43 7.33c-2.2 0.2-4.42 0.45-4.94 0.56c-0.52 0.11-3.16 0.44-5.87 0.74c-3.96 0.44-5.06 0.69-5.68 1.31l-0.77 0.77l1.08 3.39l1.08 3.39l-2.36 6.42c-4.97 13.52-6.1 15.83-7.43 15.08c-0.79-0.44-4.56-4.75-18.57-21.21c-4.62-5.43-4.87-5.46-6.81-0.76c-0.78 1.88-1.42 3.71-1.43 4.06c-0.02 0.85 0.34 1.28 16.44 19.96c2.56 2.96 6 6.98 7.66 8.94c5.52 6.51 5.09 6.78 9.93-6.15c4.39-11.71 9.37-24.12 9.96-24.79c0.72-0.82 1.18-0.91 9.58-1.83c9.51-1.04 8.77-0.29 8.77-8.86c0-5.92 0.1-7.08 0.65-7.88c0.8-1.16 0.59-0.99 6.05-5.1c2.48-1.87 5.45-4.2 6.61-5.19c5.62-4.81 5.76-4.82 13.75-1.87c8.24 3.05 7.38 3.47 10.15-5.03c2.25-6.92 2.28-6.93 6.74-2.57c3.85 3.76 3.27 3.73 12.33 0.51c8.19-2.91 8-2.71 6.66-7.23c-1.03-3.46-1.34-3.55-7.03-2.08c-6.1 1.58-5.55 1.78-11.87-4.38c-6.85-6.69-6.21-6.91-9.44 3.29zm192.74 26.72c-2.75 8.41-6.44 19.61-8.21 24.9c-4 11.97-4.02 11.34 0.45 14.42c4.03 2.77 4.52 2.83 8.23 1.09c5.54-2.61 14.14-4.54 22.31-5.01c5.7-0.33 5.55-0.13 5.23-6.76c-0.28-5.8-0.5-6.54-2.04-6.97c-2.4-0.67-11.17-0.31-14.82 0.62c-5.55 1.41-5.52 1.51-2.22-7.76c1.34-3.76 3.84-10.77 5.56-15.57c3.87-10.85 4.05-9.92-2.49-12.82c-7.2-3.19-5.97-4.61-12.01 13.87zm-168.13 3.03c2.37 2.14 6.55 1.42 8.2-1.42c2.06-3.56 5.4-6.2 8.64-6.83c3.66-0.72 4.18-0.96 4.18-1.91c0-0.52-0.32-1.09-0.74-1.32c-6.07-3.25-24.83 7.38-20.28 11.49zm59.41-7.43c-1.52 2.39-1.44 2.95 0.7 5.21c1.01 1.07 2.48 3.18 3.28 4.7c1.65 3.15 2.48 3.47 4.82 1.88c2.64-1.8 0.95-7.33-3.49-11.44c-2.94-2.72-3.76-2.77-5.3-0.34zm-17.68 3.93c-1.33 2.62-1.25 3.33 0.48 4.03c8.65 3.49 13.58 9.13 16.86 19.33c1.43 4.42 1.67 4.66 4.01 3.86c3.41-1.16 3.91-2.65 2.39-7.14c-3.01-8.95-10.24-17.75-17.58-21.42c-3.81-1.91-4.6-1.73-6.16 1.35zm39.84-0.01c-9.55 4.78-17.33 21.3-10.02 21.3c2.17 0 3.04-0.71 3.7-3.01c1.56-5.48 4.63-9.36 9.61-12.16c3.36-1.89 4.13-4.69 1.91-6.91c-1.04-1.04-1.77-0.93-5.2 0.78zm-101.59-0.72c-6.08 0.07-7.09 0.7-6.68 4.14c0.37 3.18 0.45 3.21 6.94 3.22c6.41 0.01 7.85 0.44 11.79 3.49c2.37 1.84 2.6 1.9 3.81 1.06c2.57-1.8-4.12-9.04-10.34-11.18c-1.63-0.56-3.14-0.76-5.51-0.73zm39.55 6.8c-9.41 1.06-16.65 5.64-21.09 13.35c-1.82 3.15-1.34 4.26 2.15 4.99c2.57 0.54 2.57 0.54 5.37-3.67c5.43-8.16 12.18-11.9 20.41-11.33c3.11 0.22 5.21-1.77 3.07-2.91c-1.02-0.54-6.7-0.79-9.92-0.42zm65.87 6.55c0.34 2.88 0.59 3.04 4.31 2.73c2.04-0.17 4.21-0.08 6.04 0.23c3.23 0.55 3.5 0.43 3.84-1.63c0.38-2.34-0.08-3.28-2.04-4.15c-5.49-2.43-12.58-0.79-12.15 2.82zm-45.35 2.34c-1.07 2.5-1.13 2.34 2.17 5.77c1.92 2 3.33 3.88 4.06 5.41c1.33 2.81 1.96 3.09 4.32 1.92c3.87-1.92 0.82-9.84-5.54-14.39c-3.08-2.21-3.57-2.08-5.01 1.29zm-68.03-0.72c-5.92 1.28-5.97 1.34-4.59 5.41c1.25 3.7 1.42 3.77 6.42 2.78c4.18-0.83 8.6-0.89 12.67-0.17c1.69 0.3 2.21-0.04 3.58-2.39c1.38-2.36 0.93-3.18-2.79-4.94c-3.97-1.88-8.77-2.1-15.29-0.68zm111.18 5.23c-7.94 2.88-15.74 14.88-10.8 16.6c3.26 1.14 4.46 0.6 5.93-2.64c1.33-2.94 3.14-4.81 6.68-6.91c3.74-2.23 3.98-4.22 0.8-6.72c-1.14-0.89-1.07-0.89-2.6-0.33zm-68.87 5.4c0.57 1.37 0.9 1.54 3.84 1.92c1.05 0.14 3.06 0.59 4.48 1c3.31 0.97 3.92 0.75 5.1-1.81c1.59-3.46 1.12-4.04-4.49-5.47c-8.39-2.14-11.1-0.82-8.93 4.36zm71.37 11.21c1.67 2.97 4.6 3.16 6.56 0.42c0.73-1.02 2.45-2.75 3.82-3.85c3.03-2.43 3.19-4.03 0.68-6.9c-2.42-2.76-12.91 7.04-11.07 10.33zm-110.88-4.02c-2.66 2.06-2.67 2.32-0.33 4.83c2.25 2.4 3.12 2.44 6.31 0.26c1.31-0.9 3.53-2.11 4.93-2.71c2.05-0.87 2.62-1.3 2.95-2.23c0.54-1.55 0.51-4.2-0.06-4.76c-1.68-1.68-8.73 0.68-13.8 4.62zm30.41 8.79c-1.08 0.55-2.55 0.96-3.41 0.96c-2.52 0-3.76 1.07-5.51 4.75c-1.97 4.12-3 4.78-6.25 4c-5.06-1.21-4 2.79 1.46 5.51c4.58 2.28 7.58 0.98 11.37-4.95c1.59-2.49 2.47-2.6 5.86-0.69c3.36 1.89 6.73 2.04 9.84 0.42c4.75-2.48 6.94-7.8 2.62-6.38c-2.18 0.72-4.06 0.25-8.08-2.02c-4.73-2.68-5.48-2.83-7.89-1.6zm45.14 11.83c-0.29 2.92 6.16 8.75 11.51 10.4c9.2 2.84 20.14-1.47 16.95-6.69c-1.26-2.06-1.97-2.21-4.88-1.02c-6.89 2.83-12.3 1.39-17.07-4.54c-1.54-1.91-6.28-0.56-6.51 1.85zm-18.88 13.09c-0.97 3.87-2.2 8.63-2.73 10.59c-0.53 1.96-0.87 3.93-0.76 4.39c0.63 2.49 2.62 23.71 2.34 24.85c-0.3 1.2-1.62 1.12-4.38-0.28c-4.49-2.27-4.27-2.75-8.38 17.99c-2.25 11.34-1.88 11.38-8.61-0.89c-10.12-18.43-8.6-16.93-13.19-13.1c-4.4 3.67-4.8 3.33-5.74-4.96c-0.33-2.93-0.77-6.43-0.98-7.8c-0.4-2.64-1-8.86-1.06-10.97c-0.02-0.7-0.2-1.47-0.4-1.71c-0.2-0.24-2.34-3.99-4.77-8.34c-7.76-13.9-6.72-13.06-12.86-10.31c-24.83 11.11-39.93 22.05-41.8 30.27c-0.81 3.56 1.55 12.32 5.79 21.57l1.98 4.31l-0.43 3.08c-1.65 11.82 1.59 21.6 8.31 25.08l2.09 1.08l5.95-0.22l5.95-0.21l2.59 1.7c3.23 2.12 3.51 2.11 6.37-0.14c16.64-13.12 44.31-19.52 73.44-16.98c4.18 0.36 8.72 0.7 10.08 0.75c14.12 0.52 37.96 9.86 47.43 18.57c3.21 2.95 2.68 2.78 5.04 1.59c2.13-1.08 3.74-1.17 7.03-0.37c3.29 0.79 11.86 1.17 13.58 0.6c5.97-1.97 9.61-9.18 9.61-19.04v-5.89l-1.43-3.09c-1.85-4-1.83-4.18 0.86-10.45c4.22-9.83 6.04-17.14 4.75-19.1c-3.07-4.68-40.96-32.56-44.26-32.56c-1.36 0-10.68 18.16-10.68 20.81c0 0.79-0.35 4.17-0.78 7.52c-0.43 3.35-0.93 7.37-1.11 8.94c-0.32 2.74-1.01 7.28-1.36 8.99c-0.4 1.93-1.5 1.57-5.48-1.75c-4.45-3.71-3.13-5.14-16.64 18.12c-3.38 5.82-4.73 6.82-5.21 3.84c-0.11-0.69-0.65-3.99-1.19-7.34c-0.79-4.85-3.19-17.36-4.25-22.15c-0.35-1.58 0.92-2.74 5.35-4.88c4.86-2.35 5.26-2.41 7.21-1.09c1.31 0.89 1.66 0.95 3.99 0.73l2.55-0.24l4.36 3.81c6.32 5.52 6.4 5.49 7.39-2.55c0.85-6.92 0.86-6.92-6.53-5.17c-4.58 1.08-5.07 1.04-7.12-0.58c-1.63-1.29-2.74-1.43-4.45-0.54c-1.59 0.82-2.57 0.57-8.16-2.13c-4.86-2.34-5.77-2.48-6.35-0.96c-0.88 2.3-1.58 0.63-4.03-9.69c-4.06-17.07-5.08-21.12-5.44-21.58c-1.04-1.32-1.36-0.6-3.49 7.89zm-7.65 1.65c-9.57 8.16-20.8 9.93-32.81 5.17c-3.64-1.44-4.43-1.3-4.43 0.82c0 3.04 10.5 6.39 18.6 5.93c10.97-0.61 25.47-8.85 21.89-12.43c-1.04-1.04-1.52-0.96-3.26 0.51zm21.13 8.86c0 4.61 10.93 9.64 20.91 9.63c8.49-0.01 12.55-1.71 12.55-5.26c0-1.21-0.44-1.24-3.65-0.23c-8.31 2.62-17.05 1.31-25.61-3.85c-4.15-2.5-4.2-2.5-4.2-0.29zm-86.31 20.98c0 3.25-0.02 3.28-2.52 4.9c-1.35 0.87 0.21 1.25 4.81 1.17c4.96-0.09 6.32 0.35 7.62 2.48c2.33 3.82-0.41 7.87-5.32 7.87c-1.16 0-1.92 0.17-1.92 0.42c0 0.29 0.73 0.35 2.4 0.17c7.01-0.75 10.18 7.77 3.74 10.04c-1.92 0.68-2.03 1.15-0.27 1.15c2.17 0 3.41 1.37 3.37 3.75c-0.05 3.55-1.73 4.89-6.96 5.54c-2.58 0.32-3.25 0.54-3.36 1.07c-0.15 0.8 2.55 0.94 5 0.26c3.75-1.04 5.4 3.6 2.35 6.65c-1.5 1.5-4.18 2.59-8.59 3.48c-1.73 0.35-3.84 0.95-4.69 1.34c-4.53 2.06-11.14 0.31-13.77-3.65c-3.82-5.76-4.87-16-2.13-20.76c0.95-1.64 1.48-3.42 2.35-7.8c1.23-6.25 1.62-7.35 3.6-10.4c2.98-4.58 4.46-10.87 3.45-14.73c-0.96-3.68-0.78-5.31 0.72-6.82c3.97-3.97 10.11 4.45 10.11 13.85zm60.04-7.89c-5 2.46-4.56 2.38-9.29 1.66c-1.32-0.2-1.72-0.08-3 0.94c-1.79 1.42-3.03 1.49-7.64 0.39c-6.52-1.55-6.8-1.23-5.74 6.83c0.83 6.32 1.16 6.37 7.05 1.16c4.55-4.03 4.91-4.2 7.46-3.68c1.79 0.37 2.03 0.32 3.42-0.62c2.07-1.41 2.52-1.33 8.39 1.46c5.18 2.46 6.35 2.82 6.8 2.08c0.31-0.51-0.53-10.58-0.97-11.69c-0.51-1.27-1.31-1.09-6.48 1.46zm100.99 6.75c-0.36 2.12-0.53 4.41-0.4 5.09c0.61 3.05 2.29 7.34 3.69 9.44c2.05 3.06 2.8 5.18 3.73 10.47c0.45 2.56 1.28 5.59 1.94 7.15c3.59 8.36 0.78 21.53-5.16 24.23c-4.52 2.05-19.92-0.27-23.26-3.51c-3.87-3.75-2.02-7.11 3.65-6.61c2.09 0.18 3.04 0.13 3.24-0.18c0.41-0.66 0.13-0.78-2.71-1.18c-5.1-0.71-7.36-2.47-7.36-5.72c0-1.94 0.49-2.84 1.95-3.59l1.16-0.6l-1.55-1.44c-1.56-1.44-1.72-1.93-1.58-4.78c0.16-3.25 1.77-4.37 6.28-4.37c3.27 0 3.55-0.54 0.47-0.92c-3.83-0.48-5.82-2.44-5.49-5.4c0.44-3.93 2.45-5.08 8.91-5.08c5.07 0 5.87-0.33 3.6-1.49c-1.78-0.91-1.96-1.31-1.96-4.34c0.01-5.68 3.59-13.85 6.61-15.1c3.47-1.44 5.25 1.9 4.23 7.93zm-17.69 35.43c0.31 0.2 1.34 0.36 2.28 0.35c1.3-0.02 1.53-0.1 0.95-0.35c-1.11-0.48-3.97-0.48-3.23 0zm-103.04 20.69c-3.85 2.02-4.27 3.79-0.66 2.83c2.95-0.79 2.94-0.82 2.94 8.97c0 9.09 0.25 10.43 1.78 9.49c0.99-0.61 1.26-21.01 0.29-21.98c-0.87-0.87-1.58-0.76-4.35 0.7zm11.02 4.21c-1.62 5.79 3.37 10.2 9.57 8.47c3.72-1.04 1.55 5.71-2.24 6.97c-0.71 0.23-2.09 0.38-3.07 0.34c-2.56-0.12-2.74-0.07-2.74 0.75c0 1.89 5.35 1.97 8.33 0.13c5.95-3.68 6.84-16.4 1.44-20.76c-3.83-3.1-9.89-0.89-11.29 4.12zm20.78-3.68c-5.69 5.39-0.34 14.85 6.96 12.3c1.87-0.65 2.41-0.23 2.19 1.7c-0.4 3.55-3.34 5.72-7.18 5.32c-1.66-0.17-2.26-0.09-2.63 0.36c-1.24 1.5 3.01 2.62 6.44 1.69c7.25-1.95 9.54-16.81 3.36-21.82c-2.5-2.02-6.76-1.82-9.14 0.44zm16.48 5.7c0 5.14 3.85 7.99 8.92 6.59c2.52-0.69 3.22 0.82 1.73 3.73c-1.27 2.49-2.74 3.25-6.28 3.25c-2.47 0-3.06 0.11-3.15 0.6c-0.39 2 5.32 2.41 8.41 0.6c6.04-3.55 7.04-16.84 1.59-21c-4.8-3.66-11.22-0.11-11.22 6.22zm-25.47 0.7c0 2.19-2.13 3.94-4.8 3.94c-4.89 0-6.05-7.69-1.48-9.74c2.92-1.31 6.27 1.79 6.27 5.8zm18.48-0.92c0.51 3.69-3.26 6.07-6.75 4.26c-2.98-1.54-2.9-7.06 0.12-8.9c2.86-1.74 6.06 0.5 6.63 4.64zm16.94-3.55c3.28 3.47 1.73 8.41-2.65 8.41c-4.88 0.01-6.5-6.88-2.24-9.54c1.67-1.04 3.17-0.7 4.89 1.12zm-81.9 4.6c-6.33 5.58-2.15 16.27 5.9 15.06c3.66-0.55 3.8-2.58 0.16-2.27c-3.94 0.33-5.94-1.47-6.23-5.65c-0.31-4.38 1.87-6.75 6.21-6.75c2.55 0 3.26-0.73 1.85-1.9c-1.68-1.4-5.39-0.69-7.88 1.51zm100.09-1.4l-0.95 0.48v7.36c0 6.46 0.08 7.41 0.63 7.76c1.5 0.95 1.84-0.2 1.84-6.18c0-6.83 0.03-6.88 3.64-7.22c3.54-0.33 4.73-1.29 2.85-2.3c-1.04-0.55-6.86-0.48-8.01 0.1z" />
	</g>
</svg>