<svg id="svg" version="1.1" xmlns="http://www.w3.org/2000/svg" xmlns:xlink="http://www.w3.org/1999/xlink" width="400" height="380.0711743772242" viewBox="0, 0, 400,380.0711743772242"><g id="svgg"><path id="path0" d="M186.882 26.609 C 108.967 32.443,48.059 76.436,26.385 142.533 C 18.213 167.453,17.490 198.476,24.486 223.971 C 55.125 335.627,202.027 383.061,304.563 314.406 C 343.825 288.118,367.227 251.804,374.862 205.323 C 377.980 186.342,375.174 159.555,367.851 138.402 C 362.963 124.283,352.216 104.494,344.708 95.789 C 344.064 95.042,342.338 92.904,340.875 91.038 C 308.245 49.460,243.497 22.370,186.882 26.609 M166.065 62.833 C 166.906 63.512,168.629 64.900,169.894 65.916 C 172.764 68.222,172.901 68.586,171.589 70.398 C 171.008 71.200,170.169 72.364,169.725 72.985 C 165.554 78.818,161.969 94.305,162.492 104.224 C 162.704 108.239,162.661 108.697,162.008 109.288 C 161.168 110.048,152.830 111.534,151.277 111.200 C 150.367 111.005,141.388 101.794,134.565 94.057 C 133.434 92.775,129.826 88.894,126.547 85.433 C 117.961 76.372,118.217 77.772,123.960 71.264 C 127.894 66.805,127.626 66.779,132.577 72.120 C 134.840 74.561,138.322 78.283,140.314 80.390 C 142.307 82.497,145.034 85.469,146.375 86.996 C 149.794 90.888,150.480 90.787,151.368 86.261 C 153.316 76.332,156.790 68.441,161.351 63.593 C 163.548 61.257,164.021 61.181,166.065 62.833 M267.663 67.470 C 268.021 67.901,267.945 68.943,267.308 72.318 C 266.862 74.682,266.320 77.563,266.105 78.720 C 264.936 84.994,265.910 84.718,284.791 73.418 C 289.769 70.438,289.774 70.441,292.929 77.344 C 295.811 83.651,296.279 83.038,283.460 89.741 C 276.375 93.446,276.351 93.506,279.974 98.435 C 281.298 100.237,283.565 103.396,285.012 105.455 C 286.459 107.513,288.541 110.475,289.639 112.035 C 292.360 115.903,292.325 116.581,289.283 118.917 C 287.989 119.910,286.101 121.450,285.087 122.338 C 284.074 123.227,282.909 123.954,282.499 123.954 C 282.058 123.954,281.281 123.296,280.594 122.338 C 277.354 117.823,274.088 113.243,269.790 107.185 C 262.876 97.441,262.932 97.454,261.796 105.373 C 260.933 111.384,261.021 111.294,254.342 112.984 C 245.337 115.263,244.773 115.064,245.786 109.965 C 246.106 108.353,246.622 105.494,246.933 103.612 C 247.243 101.730,247.768 98.736,248.098 96.958 C 248.428 95.181,249.461 89.278,250.393 83.840 C 252.879 69.341,251.997 70.789,259.506 68.884 C 262.015 68.248,264.496 67.556,265.019 67.348 C 266.378 66.805,267.141 66.840,267.663 67.470 M200.613 72.805 C 208.273 75.080,209.892 83.851,203.747 89.775 C 200.518 92.887,200.521 92.990,203.897 96.218 C 207.894 100.038,208.858 99.638,209.342 93.958 C 209.678 90.010,210.188 89.354,212.919 89.354 C 216.476 89.354,216.896 93.855,214.059 101.595 C 212.595 105.590,212.684 105.910,216.267 109.592 C 219.933 113.359,219.834 113.825,215.336 113.988 C 212.376 114.094,212.273 114.068,210.623 112.756 C 208.477 111.050,207.774 111.068,204.930 112.906 C 197.328 117.820,185.760 114.774,182.940 107.115 C 181.086 102.080,182.943 95.690,187.250 92.284 C 188.868 91.005,188.944 90.075,187.577 88.283 C 181.303 80.058,190.053 69.669,200.613 72.805 M193.831 79.300 C 191.223 80.715,191.370 83.296,194.236 86.407 C 196.653 89.031,201.927 84.934,200.982 81.167 C 200.454 79.064,196.276 77.973,193.831 79.300 M239.829 90.390 C 240.473 91.243,240.461 91.405,239.185 99.732 C 236.111 119.794,235.818 123.515,237.262 124.197 C 239.811 125.401,260.076 121.016,260.076 119.260 C 260.076 119.052,260.354 118.574,260.694 118.198 C 261.622 117.172,262.309 117.749,265.151 121.942 C 276.151 138.167,274.693 137.239,282.159 132.769 C 289.303 128.491,289.936 128.384,289.609 131.506 C 289.433 133.192,286.619 147.978,285.381 153.723 C 285.066 155.183,286.745 156.143,293.726 158.490 C 306.611 162.822,316.381 166.408,317.010 167.037 C 317.783 167.810,317.632 168.788,315.025 179.864 C 312.827 189.200,312.753 188.692,316.974 193.214 C 322.525 199.159,322.603 199.478,319.331 202.885 C 316.123 206.225,315.849 206.181,312.618 201.806 C 311.189 199.872,308.705 196.944,307.098 195.300 C 303.324 191.439,303.367 192.143,306.255 181.440 C 309.689 168.713,309.916 169.691,302.974 167.351 C 287.496 162.134,276.910 158.366,276.331 157.868 C 275.481 157.138,275.494 156.361,276.435 151.817 C 277.873 144.869,277.973 144.236,277.729 143.601 C 277.358 142.634,276.220 142.831,273.549 144.325 C 269.935 146.346,270.172 146.529,263.562 136.647 C 259.096 129.971,258.753 129.719,255.043 130.365 C 253.733 130.593,250.694 131.057,248.289 131.397 C 245.884 131.737,242.890 132.160,241.635 132.338 C 240.380 132.515,236.460 133.088,232.922 133.611 C 224.294 134.885,224.268 134.861,225.649 126.670 C 225.954 124.863,226.648 120.133,227.191 116.160 C 227.735 112.186,228.416 107.652,228.706 106.084 C 228.996 104.515,229.593 100.837,230.033 97.909 C 231.271 89.669,231.092 90.028,234.108 89.685 C 237.051 89.349,239.249 89.620,239.829 90.390 M95.861 91.220 C 98.033 92.038,101.692 93.478,103.992 94.422 C 106.293 95.366,111.597 97.440,115.779 99.032 C 124.670 102.415,133.448 106.016,134.125 106.557 C 134.866 107.150,134.698 108.788,133.420 113.409 C 131.724 119.546,131.931 119.446,125.712 117.110 C 119.893 114.924,120.448 114.716,110.076 122.973 C 104.415 127.479,104.019 127.533,101.783 124.110 C 99.697 120.918,98.660 121.352,98.216 125.599 C 97.812 129.469,97.374 129.654,91.255 128.538 C 85.554 127.499,84.927 127.061,85.364 124.430 C 85.459 123.855,85.971 119.876,86.501 115.589 C 87.030 111.302,87.722 105.827,88.037 103.422 C 88.353 101.017,88.853 97.198,89.148 94.936 C 89.926 88.969,89.907 88.979,95.861 91.220 M191.398 97.050 C 184.824 102.822,190.872 110.823,199.960 108.376 C 204.534 107.144,204.308 105.685,198.676 100.095 C 193.896 95.351,193.515 95.192,191.398 97.050 M310.289 103.258 C 311.636 103.795,316.416 105.527,320.913 107.108 C 332.795 111.284,332.186 110.688,330.600 116.579 C 328.886 122.950,329.387 122.756,321.392 120.134 C 315.206 118.106,314.567 118.068,313.318 119.656 C 311.217 122.327,312.320 123.530,319.202 126.074 C 327.647 129.197,327.456 128.932,325.484 134.765 C 323.714 140.001,323.938 139.932,316.812 137.452 C 311.215 135.505,310.179 135.385,309.337 136.587 C 307.599 139.068,308.719 140.209,315.611 142.974 C 322.554 145.761,322.340 145.366,320.562 152.104 C 318.956 158.191,319.149 158.076,313.959 156.042 C 312.033 155.287,308.745 154.026,306.654 153.241 C 297.113 149.659,293.861 148.194,293.532 147.326 C 293.164 146.359,293.376 145.427,296.377 134.791 C 297.498 130.817,299.214 124.572,300.191 120.913 C 305.818 99.823,305.049 101.168,310.289 103.258 M100.240 109.221 C 99.649 110.160,99.046 116.542,99.449 117.593 C 100.151 119.424,108.365 114.086,108.365 111.799 C 108.365 109.695,101.343 107.467,100.240 109.221 M66.160 112.896 C 73.367 113.838,73.087 113.015,71.078 127.376 C 69.914 135.698,68.467 135.173,87.830 133.449 C 95.067 132.805,95.057 132.795,95.057 140.477 C 95.057 147.457,95.181 147.351,85.932 148.270 C 63.805 150.468,64.627 150.074,69.772 156.008 C 73.672 160.505,73.631 159.991,70.671 167.375 C 67.193 176.048,67.481 175.991,61.713 169.159 C 59.662 166.730,54.392 160.595,50.000 155.524 C 39.455 143.348,40.142 145.435,43.954 137.151 C 47.469 129.514,47.116 129.604,51.696 135.171 C 55.606 139.924,57.769 141.027,57.800 138.281 C 57.802 138.034,58.147 134.924,58.566 131.369 C 58.985 127.814,59.497 123.365,59.705 121.483 C 60.318 115.922,60.851 113.721,61.734 113.103 C 62.642 112.466,62.816 112.458,66.160 112.896 M149.743 119.527 C 156.054 125.691,155.511 125.491,161.609 123.908 C 167.291 122.433,167.607 122.526,168.635 125.987 C 169.978 130.510,170.164 130.308,161.977 133.220 C 152.918 136.442,153.502 136.467,149.652 132.709 C 145.187 128.350,145.162 128.360,142.909 135.275 C 140.138 143.778,141.003 143.350,132.762 140.304 C 124.767 137.349,124.629 137.368,119.011 142.174 C 117.861 143.158,114.889 145.493,112.406 147.362 C 106.944 151.474,107.152 151.300,106.351 152.461 C 105.799 153.263,105.703 154.424,105.703 160.342 C 105.703 168.916,106.445 168.166,96.931 169.203 C 88.523 170.120,88.069 170.206,87.346 171.029 C 86.763 171.693,81.779 184.103,77.389 195.817 C 72.545 208.746,72.984 208.474,67.459 201.968 C 65.803 200.018,62.358 195.997,59.802 193.033 C 43.699 174.354,43.342 173.919,43.359 173.069 C 43.367 172.720,44.010 170.894,44.790 169.011 C 46.735 164.313,46.983 164.340,51.604 169.772 C 65.613 186.236,69.383 190.543,70.171 190.984 C 71.505 191.731,72.640 189.430,77.606 175.905 L 79.962 169.490 78.880 166.104 L 77.797 162.718 78.566 161.949 C 79.185 161.330,80.291 161.075,84.249 160.637 C 86.952 160.338,89.591 160.005,90.114 159.898 C 90.637 159.791,92.861 159.540,95.057 159.340 C 100.697 158.828,100.766 158.735,100.492 152.011 C 100.190 144.600,99.006 146.072,114.033 135.171 C 126.039 126.461,124.479 126.991,130.798 129.468 C 137.738 132.187,137.220 132.550,140.304 122.814 C 143.536 112.613,142.892 112.837,149.743 119.527 M345.052 135.669 C 351.583 138.561,351.404 137.638,347.537 148.484 C 345.822 153.291,343.323 160.300,341.982 164.058 C 338.674 173.330,338.644 173.225,344.198 171.820 C 347.849 170.897,356.622 170.531,359.019 171.202 C 360.556 171.632,360.772 172.374,361.055 178.170 C 361.378 184.791,361.531 184.594,355.828 184.925 C 347.654 185.399,339.056 187.331,333.516 189.939 C 329.805 191.685,329.314 191.621,325.285 188.853 C 320.814 185.781,320.834 186.411,324.838 174.436 C 326.605 169.152,330.298 157.949,333.044 149.539 C 339.080 131.059,337.851 132.479,345.052 135.669 M185.196 141.078 C 185.613 141.301,185.932 141.871,185.932 142.394 C 185.932 143.347,185.413 143.584,181.749 144.306 C 178.503 144.946,175.172 147.580,173.108 151.141 C 171.462 153.982,167.280 154.708,164.912 152.564 C 160.370 148.454,179.129 137.831,185.196 141.078 M229.629 145.472 C 234.073 149.586,235.760 155.120,233.119 156.916 C 230.781 158.506,229.956 158.184,228.304 155.038 C 227.508 153.522,226.033 151.409,225.025 150.343 C 222.884 148.077,222.809 147.523,224.326 145.131 C 225.868 142.701,226.693 142.754,229.629 145.472 M212.811 147.712 C 220.159 151.388,227.382 160.188,230.396 169.137 C 231.910 173.630,231.412 175.114,228.001 176.276 C 225.655 177.075,225.413 176.842,223.988 172.419 C 220.704 162.218,215.782 156.574,207.129 153.085 C 205.404 152.389,205.320 151.683,206.650 149.058 C 208.211 145.977,208.999 145.805,212.811 147.712 M251.684 148.262 C 253.903 150.481,253.127 153.282,249.770 155.171 C 244.792 157.973,241.728 161.852,240.165 167.331 C 239.510 169.628,238.633 170.342,236.467 170.342 C 229.163 170.342,236.935 153.826,246.489 149.044 C 249.911 147.331,250.643 147.221,251.684 148.262 M150.415 149.061 C 156.636 151.202,163.327 158.441,160.752 160.245 C 159.546 161.089,159.309 161.023,156.943 159.186 C 153.009 156.132,151.568 155.705,145.157 155.695 C 138.672 155.685,138.592 155.648,138.218 152.471 C 137.812 149.029,138.826 148.400,144.902 148.328 C 147.278 148.300,148.783 148.500,150.415 149.061 M194.370 155.552 C 196.504 156.695,194.411 158.679,191.299 158.463 C 183.063 157.891,176.313 161.639,170.886 169.795 C 168.085 174.005,168.084 174.006,165.516 173.467 C 162.027 172.735,161.547 171.624,163.363 168.474 C 167.806 160.768,175.045 156.187,184.452 155.128 C 187.673 154.766,193.354 155.009,194.370 155.552 M262.469 158.862 C 264.426 159.727,264.889 160.669,264.509 163.011 C 264.173 165.077,263.897 165.195,260.671 164.643 C 258.836 164.329,256.664 164.246,254.628 164.411 C 250.906 164.713,250.660 164.557,250.319 161.678 C 249.892 158.073,256.975 156.431,262.469 158.862 M209.978 162.732 C 216.333 167.284,219.380 175.204,215.513 177.123 C 213.151 178.295,212.519 178.014,211.190 175.203 C 210.463 173.667,209.053 171.785,207.133 169.789 C 203.833 166.360,203.893 166.519,204.965 164.018 C 206.409 160.648,206.893 160.524,209.978 162.732 M152.225 163.981 C 155.941 165.745,156.400 166.559,155.015 168.923 C 153.639 171.271,153.125 171.614,151.431 171.314 C 147.369 170.593,142.947 170.654,138.765 171.487 C 133.763 172.482,133.590 172.408,132.341 168.708 C 130.968 164.642,131.018 164.583,136.934 163.298 C 143.451 161.883,148.259 162.097,152.225 163.981 M250.720 168.857 C 253.898 171.357,253.660 173.351,249.919 175.576 C 246.380 177.680,244.573 179.552,243.244 182.489 C 241.775 185.737,240.579 186.270,237.317 185.133 C 232.373 183.410,240.177 171.411,248.116 168.529 C 249.651 167.971,249.583 167.963,250.720 168.857 M188.174 169.572 C 193.776 171.002,194.246 171.575,192.660 175.038 C 191.488 177.599,190.868 177.820,187.563 176.852 C 186.143 176.436,184.125 175.985,183.080 175.849 C 180.143 175.467,179.817 175.304,179.243 173.930 C 177.078 168.749,179.783 167.430,188.174 169.572 M261.682 174.810 C 264.197 177.678,264.040 179.277,261.006 181.708 C 259.636 182.807,257.915 184.540,257.182 185.560 C 255.216 188.296,252.283 188.107,250.617 185.136 C 248.771 181.846,259.265 172.053,261.682 174.810 M153.536 176.502 C 154.099 177.065,154.130 179.719,153.592 181.264 C 153.269 182.191,152.699 182.622,150.645 183.494 C 149.245 184.089,147.028 185.308,145.719 186.204 C 142.529 188.387,141.654 188.351,139.406 185.948 C 137.060 183.440,137.077 183.182,139.734 181.119 C 144.802 177.183,151.857 174.823,153.536 176.502 M178.033 191.515 C 182.052 193.788,183.933 194.258,186.116 193.538 C 190.432 192.114,188.241 197.442,183.494 199.917 C 180.391 201.535,177.021 201.392,173.659 199.500 C 170.268 197.592,169.390 197.695,167.798 200.190 C 164.013 206.118,161.014 207.424,156.430 205.140 C 150.969 202.418,149.908 198.412,154.970 199.626 C 158.220 200.406,159.251 199.746,161.218 195.625 C 162.972 191.949,164.213 190.879,166.730 190.874 C 167.598 190.873,169.064 190.459,170.144 189.911 C 172.557 188.687,173.300 188.838,178.033 191.515 M221.797 199.887 C 226.567 205.815,231.971 207.252,238.865 204.427 C 241.775 203.234,242.490 203.383,243.745 205.443 C 246.928 210.662,235.994 214.978,226.790 212.135 C 221.448 210.485,215.000 204.658,215.285 201.738 C 215.521 199.327,220.262 197.979,221.797 199.887 M199.901 206.939 C 200.259 207.395,201.280 211.442,205.341 228.517 C 207.792 238.827,208.490 240.502,209.372 238.202 C 209.954 236.685,210.861 236.823,215.721 239.165 C 221.314 241.860,222.291 242.115,223.883 241.292 C 225.597 240.405,226.711 240.541,228.338 241.834 C 230.379 243.456,230.872 243.496,235.453 242.411 C 242.840 240.663,242.836 240.660,241.983 247.582 C 240.992 255.624,240.904 255.655,234.589 250.135 L 230.228 246.322 227.674 246.567 C 225.344 246.790,224.993 246.726,223.688 245.839 C 221.740 244.516,221.339 244.576,216.477 246.926 C 212.051 249.065,210.778 250.227,211.128 251.807 C 212.188 256.594,214.588 269.108,215.376 273.954 C 215.920 277.300,216.456 280.603,216.568 281.294 C 217.051 284.268,218.396 283.276,221.778 277.451 C 235.286 254.187,233.975 255.616,238.420 259.330 C 242.399 262.654,243.504 263.007,243.900 261.080 C 244.250 259.376,244.934 254.837,245.255 252.094 C 245.438 250.524,245.939 246.502,246.368 243.156 C 246.797 239.810,247.148 236.426,247.148 235.637 C 247.148 232.985,256.471 214.829,257.832 214.829 C 261.127 214.829,299.024 242.711,302.091 247.391 C 303.381 249.360,301.565 256.668,297.344 266.496 C 294.650 272.767,294.636 272.946,296.483 276.948 L 297.908 280.038 297.908 285.932 C 297.909 295.794,294.270 303.007,288.298 304.977 C 286.573 305.547,278.005 305.168,274.715 304.378 C 271.425 303.587,269.811 303.673,267.681 304.753 C 265.321 305.949,265.851 306.116,262.644 303.166 C 253.173 294.453,229.333 285.120,215.209 284.596 C 213.850 284.546,209.316 284.206,205.133 283.842 C 176.006 281.304,148.339 287.700,131.695 300.821 C 128.833 303.077,128.552 303.083,125.324 300.962 L 122.737 299.263 116.787 299.478 L 110.837 299.693 108.745 298.611 C 102.019 295.129,98.778 285.355,100.430 273.532 L 100.861 270.447 98.880 266.132 C 94.638 256.888,92.286 248.125,93.092 244.566 C 94.956 236.347,110.063 225.404,134.888 214.293 C 141.033 211.543,139.993 210.710,147.748 224.605 C 150.174 228.952,152.321 232.705,152.518 232.943 C 152.715 233.182,152.893 233.952,152.915 234.654 C 152.980 236.763,153.582 242.988,153.977 245.627 C 154.180 246.987,154.620 250.494,154.954 253.422 C 155.899 261.714,156.296 262.057,160.695 258.385 C 165.282 254.556,163.769 253.053,173.885 271.483 C 180.614 283.743,180.244 283.704,182.492 272.368 C 186.608 251.622,186.383 252.105,190.875 254.373 C 193.640 255.769,194.957 255.853,195.259 254.653 C 195.543 253.518,193.547 232.298,192.921 229.803 C 192.806 229.346,193.146 227.373,193.677 225.418 C 194.208 223.463,195.438 218.698,196.410 214.829 C 198.543 206.338,198.861 205.619,199.901 206.939 M192.015 215.970 C 195.597 219.551,181.095 227.790,170.126 228.405 C 162.017 228.859,151.521 225.513,151.521 222.473 C 151.521 220.355,152.308 220.209,155.950 221.652 C 167.962 226.407,179.183 224.639,188.757 216.482 C 190.490 215.006,190.975 214.929,192.015 215.970 M214.084 225.634 C 222.645 230.795,231.380 232.109,239.695 229.488 C 242.904 228.476,243.346 228.504,243.346 229.718 C 243.346 233.264,239.285 234.965,230.798 234.974 C 220.812 234.985,209.886 229.953,209.886 225.344 C 209.886 223.131,209.939 223.135,214.084 225.634 M113.460 232.471 C 111.954 233.978,111.780 235.617,112.738 239.292 C 113.742 243.147,112.266 249.440,109.285 254.018 C 107.303 257.061,106.920 258.168,105.685 264.413 C 104.820 268.792,104.283 270.575,103.337 272.212 C 100.593 276.965,101.643 287.212,105.465 292.969 C 108.092 296.925,114.699 298.676,119.232 296.617 C 120.085 296.230,122.198 295.626,123.926 295.276 C 128.331 294.383,131.013 293.296,132.515 291.795 C 135.561 288.748,133.916 284.101,130.161 285.143 C 127.720 285.821,125.015 285.682,125.166 284.886 C 125.267 284.355,125.942 284.139,128.521 283.816 C 133.751 283.162,135.425 281.829,135.479 278.275 C 135.514 275.898,134.280 274.525,132.108 274.525 C 130.345 274.525,130.457 274.052,132.380 273.372 C 138.824 271.096,135.653 262.578,128.641 263.329 C 126.970 263.508,126.236 263.457,126.236 263.162 C 126.236 262.906,126.995 262.738,128.152 262.738 C 133.065 262.738,135.805 258.687,133.475 254.866 C 132.180 252.741,130.816 252.297,125.856 252.387 C 121.260 252.469,119.696 252.088,121.049 251.216 C 123.557 249.599,123.574 249.566,123.574 246.321 C 123.574 236.922,117.427 228.504,113.460 232.471 M190.096 236.977 C 190.543 238.086,191.382 248.155,191.069 248.662 C 190.614 249.398,189.445 249.040,184.264 246.578 C 178.394 243.789,177.945 243.711,175.874 245.118 C 174.489 246.059,174.252 246.102,172.459 245.734 C 169.905 245.210,169.550 245.385,164.996 249.414 C 159.104 254.624,158.774 254.570,157.947 248.252 C 156.892 240.198,157.165 239.874,163.689 241.424 C 168.303 242.520,169.542 242.456,171.332 241.033 C 172.607 240.020,173.013 239.893,174.331 240.095 C 179.054 240.818,178.614 240.897,183.617 238.435 C 188.786 235.891,189.584 235.711,190.096 236.977 M280.378 237.246 C 277.357 238.498,273.783 246.663,273.770 252.345 C 273.763 255.378,273.941 255.774,275.726 256.685 C 277.996 257.843,277.194 258.175,272.126 258.175 C 265.672 258.176,263.661 259.323,263.218 263.257 C 262.884 266.220,264.874 268.178,268.706 268.657 C 271.786 269.042,271.511 269.582,268.236 269.582 C 263.726 269.582,262.120 270.700,261.955 273.954 C 261.809 276.812,261.969 277.295,263.532 278.738 L 265.087 280.174 263.923 280.775 C 262.463 281.530,261.977 282.427,261.977 284.368 C 261.977 287.614,264.240 289.371,269.337 290.084 C 272.176 290.481,272.456 290.603,272.047 291.265 C 271.854 291.576,270.902 291.629,268.811 291.444 C 263.140 290.942,261.286 294.296,265.160 298.051 C 268.506 301.295,283.900 303.619,288.424 301.564 C 294.371 298.863,297.177 285.694,293.586 277.338 C 292.918 275.783,292.093 272.752,291.642 270.191 C 290.708 264.896,289.955 262.784,287.909 259.720 C 286.503 257.613,284.824 253.321,284.215 250.275 C 284.078 249.590,284.256 247.298,284.612 245.181 C 285.626 239.143,283.846 235.809,280.378 237.246 M270.152 280.608 C 270.731 280.857,270.504 280.940,269.202 280.956 C 268.260 280.968,267.234 280.811,266.920 280.608 C 266.184 280.133,269.045 280.133,270.152 280.608 M168.230 300.603 C 169.203 301.577,168.937 321.973,167.944 322.582 C 166.411 323.522,166.160 322.184,166.160 313.092 C 166.160 303.308,166.169 303.337,163.217 304.126 C 159.616 305.090,160.033 303.316,163.882 301.298 C 166.650 299.846,167.359 299.733,168.230 300.603 M186.201 301.388 C 191.594 305.753,190.709 318.469,184.757 322.149 C 181.772 323.994,176.426 323.914,176.426 322.024 C 176.426 321.209,176.611 321.159,179.169 321.278 C 180.155 321.323,181.538 321.170,182.243 320.938 C 186.032 319.687,188.201 312.929,184.478 313.973 C 178.276 315.712,173.285 311.298,174.907 305.507 C 176.310 300.493,182.366 298.285,186.201 301.388 M204.832 301.388 C 211.014 306.392,208.726 321.254,201.474 323.207 C 198.046 324.130,193.790 323.010,195.033 321.512 C 195.405 321.063,195.999 320.983,197.663 321.157 C 201.506 321.559,204.443 319.381,204.843 315.834 C 205.061 313.903,204.516 313.479,202.649 314.130 C 195.351 316.674,190.002 307.221,195.688 301.828 C 198.071 299.568,202.330 299.364,204.832 301.388 M223.384 301.305 C 228.842 305.468,227.838 318.754,221.798 322.305 C 218.715 324.117,213.005 323.711,213.392 321.708 C 213.488 321.215,214.071 321.103,216.546 321.103 C 220.087 321.103,221.552 320.344,222.822 317.854 C 224.310 314.938,223.608 313.425,221.091 314.120 C 216.021 315.520,212.167 312.673,212.167 307.529 C 212.167 301.200,218.581 297.641,223.384 301.305 M180.418 302.426 C 175.845 304.479,177.011 312.167,181.896 312.167 C 184.567 312.167,186.692 310.422,186.692 308.229 C 186.692 304.212,183.341 301.113,180.418 302.426 M198.551 302.671 C 195.530 304.513,195.455 310.033,198.430 311.572 C 201.916 313.374,205.683 310.994,205.177 307.308 C 204.610 303.171,201.408 300.930,198.551 302.671 M217.224 302.630 C 212.966 305.283,214.587 312.171,219.468 312.166 C 223.847 312.161,225.402 307.224,222.118 303.754 C 220.392 301.930,218.898 301.587,217.224 302.630 M148.099 306.844 C 149.511 308.016,148.803 308.745,146.254 308.745 C 141.917 308.745,139.733 311.119,140.046 315.494 C 140.345 319.669,142.339 321.476,146.280 321.143 C 149.917 320.836,149.771 322.868,146.116 323.416 C 138.070 324.623,133.882 313.930,140.216 308.355 C 142.712 306.158,146.416 305.448,148.099 306.844 M248.314 306.857 C 250.203 307.868,249.013 308.832,245.469 309.161 C 241.850 309.497,241.825 309.548,241.825 316.376 C 241.825 322.359,241.485 323.505,239.987 322.560 C 239.431 322.210,239.354 321.255,239.354 314.799 L 239.354 307.437 240.304 306.956 C 241.454 306.374,247.277 306.303,248.314 306.857 " stroke="none" fill="#cb2c42" fill-rule="evenodd"></path><path id="path1" d="M0.000 190.114 L 0.000 380.228 200.000 380.228 L 400.000 380.228 400.000 190.114 L 400.000 0.000 200.000 0.000 L 0.000 0.000 0.000 190.114 M215.399 27.178 C 267.488 32.819,313.605 56.290,340.875 91.038 C 342.338 92.904,344.064 95.042,344.708 95.789 C 352.216 104.494,362.963 124.283,367.851 138.402 C 375.174 159.555,377.980 186.342,374.862 205.323 C 369.303 239.166,356.863 264.943,334.426 289.109 C 262.306 366.790,127.263 364.896,57.655 285.228 C 24.919 247.761,12.438 199.040,23.596 152.281 C 38.485 89.887,95.435 40.450,165.506 29.092 C 182.628 26.317,200.954 25.614,215.399 27.178 M161.351 63.593 C 156.790 68.441,153.316 76.332,151.368 86.261 C 150.480 90.787,149.794 90.888,146.375 86.996 C 145.034 85.469,142.307 82.497,140.314 80.390 C 138.322 78.283,134.840 74.561,132.577 72.120 C 127.626 66.779,127.894 66.805,123.960 71.264 C 118.217 77.772,117.961 76.372,126.547 85.433 C 129.826 88.894,133.434 92.775,134.565 94.057 C 141.388 101.794,150.367 111.005,151.277 111.200 C 152.830 111.534,161.168 110.048,162.008 109.288 C 162.661 108.697,162.704 108.239,162.492 104.224 C 161.969 94.305,165.554 78.818,169.725 72.985 C 170.169 72.364,171.008 71.200,171.589 70.398 C 172.901 68.586,172.764 68.222,169.894 65.916 C 168.629 64.900,166.906 63.512,166.065 62.833 C 164.021 61.181,163.548 61.257,161.351 63.593 M265.019 67.348 C 264.496 67.556,262.015 68.248,259.506 68.884 C 251.997 70.789,252.879 69.341,250.393 83.840 C 249.461 89.278,248.428 95.181,248.098 96.958 C 247.768 98.736,247.243 101.730,246.933 103.612 C 246.622 105.494,246.106 108.353,245.786 109.965 C 244.773 115.064,245.337 115.263,254.342 112.984 C 261.021 111.294,260.933 111.384,261.796 105.373 C 262.932 97.454,262.876 97.441,269.790 107.185 C 274.088 113.243,277.354 117.823,280.594 122.338 C 281.281 123.296,282.058 123.954,282.499 123.954 C 282.909 123.954,284.074 123.227,285.087 122.338 C 286.101 121.450,287.989 119.910,289.283 118.917 C 292.325 116.581,292.360 115.903,289.639 112.035 C 288.541 110.475,286.459 107.513,285.012 105.455 C 283.565 103.396,281.298 100.237,279.974 98.435 C 276.351 93.506,276.375 93.446,283.460 89.741 C 296.279 83.038,295.811 83.651,292.929 77.344 C 289.774 70.441,289.769 70.438,284.791 73.418 C 265.910 84.718,264.936 84.994,266.105 78.720 C 266.320 77.563,266.862 74.682,267.308 72.318 C 268.310 67.012,267.929 66.186,265.019 67.348 M192.965 72.771 C 186.004 74.953,183.315 82.695,187.577 88.283 C 188.944 90.075,188.868 91.005,187.250 92.284 C 182.943 95.690,181.086 102.080,182.940 107.115 C 185.760 114.774,197.328 117.820,204.930 112.906 C 207.774 111.068,208.477 111.050,210.623 112.756 C 212.273 114.068,212.376 114.094,215.336 113.988 C 219.834 113.825,219.933 113.359,216.267 109.592 C 212.684 105.910,212.595 105.590,214.059 101.595 C 216.896 93.855,216.476 89.354,212.919 89.354 C 210.188 89.354,209.678 90.010,209.342 93.958 C 208.858 99.638,207.894 100.038,203.897 96.218 C 200.521 92.990,200.518 92.887,203.747 89.775 C 212.388 81.445,204.580 69.130,192.965 72.771 M199.515 79.457 C 201.803 80.853,201.636 83.255,199.073 85.818 C 196.569 88.322,195.028 87.987,192.644 84.421 C 190.142 80.680,195.350 76.918,199.515 79.457 M234.108 89.685 C 231.092 90.028,231.271 89.669,230.033 97.909 C 229.593 100.837,228.996 104.515,228.706 106.084 C 228.416 107.652,227.735 112.186,227.191 116.160 C 226.648 120.133,225.954 124.863,225.649 126.670 C 224.268 134.861,224.294 134.885,232.922 133.611 C 236.460 133.088,240.380 132.515,241.635 132.338 C 242.890 132.160,245.884 131.737,248.289 131.397 C 250.694 131.057,253.733 130.593,255.043 130.365 C 258.753 129.719,259.096 129.971,263.562 136.647 C 270.172 146.529,269.935 146.346,273.549 144.325 C 276.220 142.831,277.358 142.634,277.729 143.601 C 277.973 144.236,277.873 144.869,276.435 151.817 C 275.494 156.361,275.481 157.138,276.331 157.868 C 276.910 158.366,287.496 162.134,302.974 167.351 C 309.916 169.691,309.689 168.713,306.255 181.440 C 303.367 192.143,303.324 191.439,307.098 195.300 C 308.705 196.944,311.189 199.872,312.618 201.806 C 315.849 206.181,316.123 206.225,319.331 202.885 C 322.603 199.478,322.525 199.159,316.974 193.214 C 312.753 188.692,312.827 189.200,315.025 179.864 C 317.632 168.788,317.783 167.810,317.010 167.037 C 316.381 166.408,306.611 162.822,293.726 158.490 C 286.745 156.143,285.066 155.183,285.381 153.723 C 286.619 147.978,289.433 133.192,289.609 131.506 C 289.936 128.384,289.303 128.491,282.159 132.769 C 274.693 137.239,276.151 138.167,265.151 121.942 C 262.309 117.749,261.622 117.172,260.694 118.198 C 260.354 118.574,260.076 119.052,260.076 119.260 C 260.076 121.016,239.811 125.401,237.262 124.197 C 235.818 123.515,236.111 119.794,239.185 99.732 C 240.823 89.045,240.763 88.927,234.108 89.685 M90.136 90.278 C 89.887 90.578,89.442 92.674,89.148 94.936 C 88.853 97.198,88.353 101.017,88.037 103.422 C 87.722 105.827,87.030 111.302,86.501 115.589 C 85.971 119.876,85.459 123.855,85.364 124.430 C 84.927 127.061,85.554 127.499,91.255 128.538 C 97.374 129.654,97.812 129.469,98.216 125.599 C 98.660 121.352,99.697 120.918,101.783 124.110 C 104.019 127.533,104.415 127.479,110.076 122.973 C 120.448 114.716,119.893 114.924,125.712 117.110 C 131.931 119.446,131.724 119.546,133.420 113.409 C 134.698 108.788,134.866 107.150,134.125 106.557 C 133.448 106.016,124.670 102.415,115.779 99.032 C 111.597 97.440,106.293 95.366,103.992 94.422 C 93.064 89.939,90.943 89.305,90.136 90.278 M198.676 100.095 C 204.308 105.685,204.534 107.144,199.960 108.376 C 190.872 110.823,184.824 102.822,191.398 97.050 C 193.515 95.192,193.896 95.351,198.676 100.095 M305.407 102.757 C 305.017 103.234,303.490 108.547,300.191 120.913 C 299.214 124.572,297.498 130.817,296.377 134.791 C 293.376 145.427,293.164 146.359,293.532 147.326 C 293.861 148.194,297.113 149.659,306.654 153.241 C 308.745 154.026,312.033 155.287,313.959 156.042 C 319.149 158.076,318.956 158.191,320.562 152.104 C 322.340 145.366,322.554 145.761,315.611 142.974 C 308.719 140.209,307.599 139.068,309.337 136.587 C 310.179 135.385,311.215 135.505,316.812 137.452 C 323.938 139.932,323.714 140.001,325.484 134.765 C 327.456 128.932,327.647 129.197,319.202 126.074 C 312.320 123.530,311.217 122.327,313.318 119.656 C 314.567 118.068,315.206 118.106,321.392 120.134 C 329.387 122.756,328.886 122.950,330.600 116.579 C 332.186 110.688,332.795 111.284,320.913 107.108 C 316.416 105.527,311.636 103.795,310.289 103.258 C 307.606 102.188,306.007 102.024,305.407 102.757 M105.540 109.541 C 109.623 111.241,109.546 111.966,104.895 115.565 C 99.746 119.550,99.024 119.277,99.449 113.506 C 99.857 107.969,100.600 107.485,105.540 109.541 M61.734 113.103 C 60.851 113.721,60.318 115.922,59.705 121.483 C 59.497 123.365,58.985 127.814,58.566 131.369 C 58.147 134.924,57.802 138.034,57.800 138.281 C 57.769 141.027,55.606 139.924,51.696 135.171 C 47.116 129.604,47.469 129.514,43.954 137.151 C 40.142 145.435,39.455 143.348,50.000 155.524 C 54.392 160.595,59.662 166.730,61.713 169.159 C 67.481 175.991,67.193 176.048,70.671 167.375 C 73.631 159.991,73.672 160.505,69.772 156.008 C 64.627 150.074,63.805 150.468,85.932 148.270 C 95.181 147.351,95.057 147.457,95.057 140.477 C 95.057 132.795,95.067 132.805,87.830 133.449 C 68.467 135.173,69.914 135.698,71.078 127.376 C 73.087 113.015,73.367 113.838,66.160 112.896 C 62.816 112.458,62.642 112.466,61.734 113.103 M142.829 115.494 C 142.533 116.069,141.397 119.363,140.304 122.814 C 137.220 132.550,137.738 132.187,130.798 129.468 C 124.479 126.991,126.039 126.461,114.033 135.171 C 99.006 146.072,100.190 144.600,100.492 152.011 C 100.766 158.735,100.697 158.828,95.057 159.340 C 92.861 159.540,90.637 159.791,90.114 159.898 C 89.591 160.005,86.952 160.338,84.249 160.637 C 80.291 161.075,79.185 161.330,78.566 161.949 L 77.797 162.718 78.880 166.104 L 79.962 169.490 77.606 175.905 C 72.640 189.430,71.505 191.731,70.171 190.984 C 69.383 190.543,65.613 186.236,51.604 169.772 C 46.983 164.340,46.735 164.313,44.790 169.011 C 44.010 170.894,43.367 172.720,43.359 173.069 C 43.342 173.919,43.699 174.354,59.802 193.033 C 62.358 195.997,65.803 200.018,67.459 201.968 C 72.984 208.474,72.545 208.746,77.389 195.817 C 81.779 184.103,86.763 171.693,87.346 171.029 C 88.069 170.206,88.523 170.120,96.931 169.203 C 106.445 168.166,105.703 168.916,105.703 160.342 C 105.703 154.424,105.799 153.263,106.351 152.461 C 107.152 151.300,106.944 151.474,112.406 147.362 C 114.889 145.493,117.861 143.158,119.011 142.174 C 124.629 137.368,124.767 137.349,132.762 140.304 C 141.003 143.350,140.138 143.778,142.909 135.275 C 145.162 128.360,145.187 128.350,149.652 132.709 C 153.502 136.467,152.918 136.442,161.977 133.220 C 170.164 130.308,169.978 130.510,168.635 125.987 C 167.607 122.526,167.291 122.433,161.609 123.908 C 155.511 125.491,156.054 125.691,149.743 119.527 C 144.246 114.158,143.683 113.830,142.829 115.494 M338.696 133.866 C 338.256 134.123,336.388 139.303,333.044 149.539 C 330.298 157.949,326.605 169.152,324.838 174.436 C 320.834 186.411,320.814 185.781,325.285 188.853 C 329.314 191.621,329.805 191.685,333.516 189.939 C 339.056 187.331,347.654 185.399,355.828 184.925 C 361.531 184.594,361.378 184.791,361.055 178.170 C 360.772 172.374,360.556 171.632,359.019 171.202 C 356.622 170.531,347.849 170.897,344.198 171.820 C 338.644 173.225,338.674 173.330,341.982 164.058 C 352.406 134.839,351.984 138.739,345.052 135.669 C 339.723 133.309,339.676 133.295,338.696 133.866 M177.663 141.253 C 170.314 142.585,162.017 149.945,164.912 152.564 C 167.280 154.708,171.462 153.982,173.108 151.141 C 175.172 147.580,178.503 144.946,181.749 144.306 C 185.413 143.584,185.932 143.347,185.932 142.394 C 185.932 140.625,183.203 140.248,177.663 141.253 M224.326 145.131 C 222.809 147.523,222.884 148.077,225.025 150.343 C 226.033 151.409,227.508 153.522,228.304 155.038 C 229.956 158.184,230.781 158.506,233.119 156.916 C 235.760 155.120,234.073 149.586,229.629 145.472 C 226.693 142.754,225.868 142.701,224.326 145.131 M208.266 146.801 C 205.933 148.159,205.184 152.301,207.129 153.085 C 215.782 156.574,220.704 162.218,223.988 172.419 C 225.413 176.842,225.655 177.075,228.001 176.276 C 232.151 174.862,232.211 171.981,228.255 164.111 C 223.439 154.529,212.002 144.625,208.266 146.801 M246.489 149.044 C 239.940 152.322,234.952 159.311,233.664 167.015 C 232.942 171.335,238.940 171.626,240.165 167.331 C 241.728 161.852,244.792 157.973,249.770 155.171 C 252.761 153.488,253.030 153.085,252.687 150.797 C 252.150 147.214,250.869 146.852,246.489 149.044 M140.323 148.676 C 138.395 149.130,137.924 149.979,138.218 152.471 C 138.592 155.648,138.672 155.685,145.157 155.695 C 151.568 155.705,153.009 156.132,156.943 159.186 C 159.309 161.023,159.546 161.089,160.752 160.245 C 162.384 159.102,161.889 157.881,158.466 154.603 C 152.431 148.824,147.096 147.081,140.323 148.676 M184.452 155.128 C 175.045 156.187,167.806 160.768,163.363 168.474 C 161.547 171.624,162.027 172.735,165.516 173.467 C 168.084 174.006,168.085 174.005,170.886 169.795 C 176.313 161.639,183.063 157.891,191.299 158.463 C 193.875 158.641,195.057 157.990,195.057 156.393 C 195.057 155.178,189.690 154.539,184.452 155.128 M253.337 158.140 C 250.705 158.817,250.068 159.563,250.319 161.678 C 250.660 164.557,250.906 164.713,254.628 164.411 C 256.664 164.246,258.836 164.329,260.671 164.643 C 263.897 165.195,264.173 165.077,264.509 163.011 C 264.889 160.669,264.426 159.727,262.469 158.862 C 260.526 158.002,255.435 157.600,253.337 158.140 M206.152 161.705 C 205.629 162.335,204.181 165.708,204.186 166.286 C 204.188 166.530,205.514 168.107,207.133 169.789 C 209.053 171.785,210.463 173.667,211.190 175.203 C 212.519 178.014,213.151 178.295,215.513 177.123 C 217.293 176.240,217.300 176.227,217.288 174.318 C 217.255 169.001,208.411 158.983,206.152 161.705 M136.934 163.298 C 131.018 164.583,130.968 164.642,132.341 168.708 C 133.590 172.408,133.763 172.482,138.765 171.487 C 142.947 170.654,147.369 170.593,151.431 171.314 C 153.125 171.614,153.639 171.271,155.015 168.923 C 157.908 163.986,147.984 160.898,136.934 163.298 M248.116 168.529 C 240.177 171.411,232.373 183.410,237.317 185.133 C 240.579 186.270,241.775 185.737,243.244 182.489 C 244.573 179.552,246.380 177.680,249.919 175.576 C 253.660 173.351,253.898 171.357,250.720 168.857 C 249.583 167.963,249.651 167.971,248.116 168.529 M179.563 168.809 C 177.984 169.488,178.739 174.923,180.479 175.407 C 180.864 175.514,182.034 175.713,183.080 175.849 C 184.125 175.985,186.143 176.436,187.563 176.852 C 190.868 177.820,191.488 177.599,192.660 175.038 C 194.246 171.575,193.776 171.002,188.174 169.572 C 184.498 168.633,180.744 168.301,179.563 168.809 M258.191 175.005 C 253.978 177.118,249.488 183.124,250.617 185.136 C 252.283 188.107,255.216 188.296,257.182 185.560 C 257.915 184.540,259.636 182.807,261.006 181.708 C 263.724 179.530,263.977 178.854,262.882 176.692 C 261.475 173.914,260.830 173.682,258.191 175.005 M147.529 176.767 C 145.265 177.503,142.151 179.242,139.734 181.119 C 137.077 183.182,137.060 183.440,139.406 185.948 C 141.654 188.351,142.529 188.387,145.719 186.204 C 147.028 185.308,149.245 184.089,150.645 183.494 C 153.458 182.299,153.992 181.508,153.992 178.536 C 153.992 175.884,151.956 175.326,147.529 176.767 M170.144 189.911 C 169.064 190.459,167.598 190.873,166.730 190.874 C 164.213 190.879,162.972 191.949,161.218 195.625 C 159.251 199.746,158.220 200.406,154.970 199.626 C 149.908 198.412,150.969 202.418,156.430 205.140 C 161.014 207.424,164.013 206.118,167.798 200.190 C 169.390 197.695,170.268 197.592,173.659 199.500 C 177.021 201.392,180.391 201.535,183.494 199.917 C 188.241 197.442,190.432 192.114,186.116 193.538 C 183.933 194.258,182.052 193.788,178.033 191.515 C 173.300 188.838,172.557 188.687,170.144 189.911 M217.096 199.715 C 211.364 202.605,221.416 212.001,231.457 213.137 C 238.713 213.958,246.112 209.325,243.745 205.443 C 242.490 203.383,241.775 203.234,238.865 204.427 C 231.971 207.252,226.567 205.815,221.797 199.887 C 220.765 198.604,219.397 198.554,217.096 199.715 M198.532 207.129 C 198.337 207.495,197.382 210.960,196.410 214.829 C 195.438 218.698,194.208 223.463,193.677 225.418 C 193.146 227.373,192.806 229.346,192.921 229.803 C 193.547 232.298,195.543 253.518,195.259 254.653 C 194.957 255.853,193.640 255.769,190.875 254.373 C 186.383 252.105,186.608 251.622,182.492 272.368 C 180.244 283.704,180.614 283.743,173.885 271.483 C 163.769 253.053,165.282 254.556,160.695 258.385 C 156.296 262.057,155.899 261.714,154.954 253.422 C 154.620 250.494,154.180 246.987,153.977 245.627 C 153.582 242.988,152.980 236.763,152.915 234.654 C 152.893 233.952,152.715 233.182,152.518 232.943 C 152.321 232.705,150.174 228.952,147.748 224.605 C 139.993 210.710,141.033 211.543,134.888 214.293 C 110.063 225.404,94.956 236.347,93.092 244.566 C 92.286 248.125,94.638 256.888,98.880 266.132 L 100.861 270.447 100.430 273.532 C 98.778 285.355,102.019 295.129,108.745 298.611 L 110.837 299.693 116.787 299.478 L 122.737 299.263 125.324 300.962 C 128.552 303.083,128.833 303.077,131.695 300.821 C 148.339 287.700,176.006 281.304,205.133 283.842 C 209.316 284.206,213.850 284.546,215.209 284.596 C 229.333 285.120,253.173 294.453,262.644 303.166 C 265.851 306.116,265.321 305.949,267.681 304.753 C 269.811 303.673,271.425 303.587,274.715 304.378 C 278.005 305.168,286.573 305.547,288.298 304.977 C 294.270 303.007,297.909 295.794,297.908 285.932 L 297.908 280.038 296.483 276.948 C 294.636 272.946,294.650 272.767,297.344 266.496 C 301.565 256.668,303.381 249.360,302.091 247.391 C 299.024 242.711,261.127 214.829,257.832 214.829 C 256.471 214.829,247.148 232.985,247.148 235.637 C 247.148 236.426,246.797 239.810,246.368 243.156 C 245.939 246.502,245.438 250.524,245.255 252.094 C 244.934 254.837,244.250 259.376,243.900 261.080 C 243.504 263.007,242.399 262.654,238.420 259.330 C 233.975 255.616,235.286 254.187,221.778 277.451 C 218.396 283.276,217.051 284.268,216.568 281.294 C 216.456 280.603,215.920 277.300,215.376 273.954 C 214.588 269.108,212.188 256.594,211.128 251.807 C 210.778 250.227,212.051 249.065,216.477 246.926 C 221.339 244.576,221.740 244.516,223.688 245.839 C 224.993 246.726,225.344 246.790,227.674 246.567 L 230.228 246.322 234.589 250.135 C 240.904 255.655,240.992 255.624,241.983 247.582 C 242.836 240.660,242.840 240.663,235.453 242.411 C 230.872 243.496,230.379 243.456,228.338 241.834 C 226.711 240.541,225.597 240.405,223.883 241.292 C 222.291 242.115,221.314 241.860,215.721 239.165 C 210.861 236.823,209.954 236.685,209.372 238.202 C 208.490 240.502,207.792 238.827,205.341 228.517 C 200.157 206.722,200.085 206.464,199.206 206.464 C 199.030 206.464,198.727 206.763,198.532 207.129 M188.757 216.482 C 179.183 224.639,167.962 226.407,155.950 221.652 C 152.308 220.209,151.521 220.355,151.521 222.473 C 151.521 225.513,162.017 228.859,170.126 228.405 C 178.201 227.952,187.368 224.003,191.641 219.137 C 194.163 216.265,191.687 213.986,188.757 216.482 M209.886 225.344 C 209.886 229.953,220.812 234.985,230.798 234.974 C 239.285 234.965,243.346 233.264,243.346 229.718 C 243.346 228.504,242.904 228.476,239.695 229.488 C 231.380 232.109,222.645 230.795,214.084 225.634 C 209.939 223.135,209.886 223.131,209.886 225.344 M117.865 231.935 C 120.695 233.951,123.574 241.204,123.574 246.321 C 123.574 249.566,123.557 249.599,121.049 251.216 C 119.696 252.088,121.260 252.469,125.856 252.387 C 130.816 252.297,132.180 252.741,133.475 254.866 C 135.805 258.687,133.065 262.738,128.152 262.738 C 126.995 262.738,126.236 262.906,126.236 263.162 C 126.236 263.457,126.970 263.508,128.641 263.329 C 135.653 262.578,138.824 271.096,132.380 273.372 C 130.457 274.052,130.345 274.525,132.108 274.525 C 134.280 274.525,135.514 275.898,135.479 278.275 C 135.425 281.829,133.751 283.162,128.521 283.816 C 125.942 284.139,125.267 284.355,125.166 284.886 C 125.015 285.682,127.720 285.821,130.161 285.143 C 133.916 284.101,135.561 288.748,132.515 291.795 C 131.013 293.296,128.331 294.383,123.926 295.276 C 122.198 295.626,120.085 296.230,119.232 296.617 C 114.699 298.676,108.092 296.925,105.465 292.969 C 101.643 287.212,100.593 276.965,103.337 272.212 C 104.283 270.575,104.820 268.792,105.685 264.413 C 106.920 258.168,107.303 257.061,109.285 254.018 C 112.266 249.440,113.742 243.147,112.738 239.292 C 111.205 233.406,114.099 229.253,117.865 231.935 M183.617 238.435 C 178.614 240.897,179.054 240.818,174.331 240.095 C 173.013 239.893,172.607 240.020,171.332 241.033 C 169.542 242.456,168.303 242.520,163.689 241.424 C 157.165 239.874,156.892 240.198,157.947 248.252 C 158.774 254.570,159.104 254.624,164.996 249.414 C 169.550 245.385,169.905 245.210,172.459 245.734 C 174.252 246.102,174.489 246.059,175.874 245.118 C 177.945 243.711,178.394 243.789,184.264 246.578 C 191.737 250.129,191.474 250.269,190.875 243.054 C 190.200 234.934,190.431 235.081,183.617 238.435 M283.749 237.924 C 285.085 239.129,285.310 241.023,284.612 245.181 C 284.256 247.298,284.078 249.590,284.215 250.275 C 284.824 253.321,286.503 257.613,287.909 259.720 C 289.955 262.784,290.708 264.896,291.642 270.191 C 292.093 272.752,292.918 275.783,293.586 277.338 C 297.177 285.694,294.371 298.863,288.424 301.564 C 283.900 303.619,268.506 301.295,265.160 298.051 C 261.286 294.296,263.140 290.942,268.811 291.444 C 270.902 291.629,271.854 291.576,272.047 291.265 C 272.456 290.603,272.176 290.481,269.337 290.084 C 264.240 289.371,261.977 287.614,261.977 284.368 C 261.977 282.427,262.463 281.530,263.923 280.775 L 265.087 280.174 263.532 278.738 C 261.969 277.295,261.809 276.812,261.955 273.954 C 262.120 270.700,263.726 269.582,268.236 269.582 C 271.511 269.582,271.786 269.042,268.706 268.657 C 264.874 268.178,262.884 266.220,263.218 263.257 C 263.661 259.323,265.672 258.176,272.126 258.175 C 277.194 258.175,277.996 257.843,275.726 256.685 C 273.941 255.774,273.763 255.378,273.770 252.345 C 273.791 243.331,279.920 234.474,283.749 237.924 M266.920 280.608 C 267.234 280.811,268.260 280.968,269.202 280.956 C 270.504 280.940,270.731 280.857,270.152 280.608 C 269.045 280.133,266.184 280.133,266.920 280.608 M163.882 301.298 C 160.033 303.316,159.616 305.090,163.217 304.126 C 166.169 303.337,166.160 303.308,166.160 313.092 C 166.160 322.184,166.411 323.522,167.944 322.582 C 168.576 322.195,168.639 321.320,168.732 311.684 C 168.858 298.682,168.860 298.687,163.882 301.298 M178.897 300.556 C 170.480 304.941,175.307 316.545,184.478 313.973 C 188.201 312.929,186.032 319.687,182.243 320.938 C 181.538 321.170,180.155 321.323,179.169 321.278 C 176.611 321.159,176.426 321.209,176.426 322.024 C 176.426 323.914,181.772 323.994,184.757 322.149 C 190.709 318.469,191.594 305.753,186.201 301.388 C 184.440 299.963,180.826 299.551,178.897 300.556 M197.719 300.406 C 189.368 303.904,194.112 317.106,202.649 314.130 C 204.516 313.479,205.061 313.903,204.843 315.834 C 204.443 319.381,201.506 321.559,197.663 321.157 C 195.144 320.894,194.039 321.578,195.165 322.705 C 198.119 325.658,205.674 322.205,207.455 317.088 C 210.853 307.324,205.029 297.344,197.719 300.406 M216.350 300.406 C 208.057 303.880,212.424 316.513,221.091 314.120 C 223.608 313.425,224.310 314.938,222.822 317.854 C 221.552 320.344,220.087 321.103,216.546 321.103 C 214.071 321.103,213.488 321.215,213.392 321.708 C 213.005 323.711,218.715 324.117,221.798 322.305 C 231.547 316.574,226.471 296.166,216.350 300.406 M184.241 302.900 C 186.467 304.359,187.444 309.049,185.837 310.555 C 182.120 314.036,177.230 311.672,177.650 306.598 C 177.969 302.759,181.232 300.929,184.241 302.900 M202.123 302.512 C 204.428 303.606,206.055 307.808,204.963 309.849 C 203.315 312.928,198.050 312.821,196.738 309.683 C 194.880 305.236,198.291 300.694,202.123 302.512 M222.118 303.754 C 225.402 307.224,223.847 312.161,219.468 312.166 C 214.587 312.171,212.966 305.283,217.224 302.630 C 218.898 301.587,220.392 301.930,222.118 303.754 M143.119 306.474 C 133.667 309.375,136.408 324.872,146.116 323.416 C 149.771 322.868,149.917 320.836,146.280 321.143 C 142.339 321.476,140.345 319.669,140.046 315.494 C 139.733 311.119,141.917 308.745,146.254 308.745 C 148.363 308.745,148.669 308.655,148.669 308.031 C 148.669 306.513,145.704 305.681,143.119 306.474 M240.304 306.956 L 239.354 307.437 239.354 314.799 C 239.354 321.255,239.431 322.210,239.987 322.560 C 241.485 323.505,241.825 322.359,241.825 316.376 C 241.825 309.548,241.850 309.497,245.469 309.161 C 249.013 308.832,250.203 307.868,248.314 306.857 C 247.277 306.303,241.454 306.374,240.304 306.956 " stroke="none" fill="#fbfbfb" fill-rule="evenodd"></path></g></svg>